# AST/ASF file generated using VICON BodyLanguage
# -----------------------------------------------
:version 1.10
:name VICON
:units
  mass 1.0
  length 0.45
  angle deg
:documentation
   .ast/.asf automatically generated from VICON data using
   VICON BodyBuilder and BodyLanguage model FoxedUp or BRILLIANT.MOD
:root
   order TX TY TZ RX RY RZ
   axis XYZ
   position 0 0 0  
   orientation 0 0 0 
:bonedata
  begin
     id 1 
     name lhipjoint
     direction 0.561001 -0.76473 0.316963 
     length 2.4722 
     axis 0 0 0  XYZ
  end
  begin
     id 2 
     name lfemur
     direction 0.34202 -0.939693 0  
     length 7.59403  
     axis 0 0 20  XYZ
    dof rx ry rz
    limits (-160.0 20.0)
           (-70.0 70.0)
           (-60.0 70.0)
  end
  begin
     id 3 
     name ltibia
     direction 0.34202 -0.939693 0   
     length 7.89655   
     axis 0 0 20   XYZ
    dof rx
    limits (-10.0 170.0)
  end
  begin
     id 4 
     name lfoot
     direction 0.061296 -0.168409 0.98381   
     length 2.73287   
     axis -90 7.62852e-016 20   XYZ
    dof rx rz
    limits (-45.0 90.0)
           (-70.0 20.0)
  end
  begin
     id 5 
     name ltoes
     direction 1.53547e-011 -4.21984e-011 1   
     length 1.37057   
     axis -90 7.62852e-016 20   XYZ
    dof rx
    limits (-90.0 20.0)
  end
  begin
     id 6 
     name rhipjoint
     direction -0.559611 -0.765599 0.317323   
     length 2.46939  
     axis 0 0 0  XYZ 
  end
  begin
     id 7 
     name rfemur
     direction -0.34202 -0.939693 0   
     length 7.53712   
     axis 0 0 -20   XYZ
    dof rx ry rz
    limits (-160.0 20.0)
           (-70.0 70.0)
           (-70.0 60.0)
  end
  begin
     id 8 
     name rtibia
     direction -0.34202 -0.939693 0   
     length 8.12549   
     axis 0 0 -20   XYZ
    dof rx
    limits (-10.0 170.0)
 end
 begin
     id 9 
     name rfoot
     direction -0.066984 -0.184037 0.980634   
     length 2.67541  
     axis -90 -7.62852e-016 -20   XYZ
    dof rx rz
    limits (-45.0 90.0)
           (-20.0 70.0)
  end
  begin
     id 10 
     name rtoes
     direction -1.53549e-011 -4.21786e-011 1   
     length 1.34085   
     axis -90 -7.62852e-016 -20   XYZ
    dof rx
    limits (-90.0 20.0)
  end
  begin
     id 11 
     name lowerback
     direction -0.0522728 0.992594 -0.109658   
     length 2.05633   
     axis 0 0 0   XYZ
    dof rx ry rz
    limits (-20.0 45.0)
           (-30.0 30.0)
           (-30.0 30.0)
  end
  begin
     id 12 
     name upperback
     direction 0.00589338 0.999977 0.00335704   
     length 2.05845   
     axis 0 0 0   XYZ
    dof rx ry rz
    limits (-20.0 45.0)
           (-30.0 30.0)
           (-30.0 30.0)
  end
  begin
     id 13 
     name thorax
     direction 0.0292928 0.998059 0.0549487   
     length 2.09281   
     axis 0 0 0   XYZ
    dof rx ry rz
    limits (-20.0 45.0)
           (-30.0 30.0)
           (-30.0 30.0)
  end
  begin
     id 14 
     name lowerneck
     direction 0.0356368 0.980775 0.191858   
     length 1.84767   
     axis 0 0 0   XYZ
    dof rx ry rz
    limits (-20.0 45.0)
           (-30.0 30.0)
           (-30.0 30.0)
  end
  begin
     id 15 
     name upperneck
     direction -0.0227605 0.98931 -0.14404   
     length 1.89582   
     axis 0 0 0   XYZ
    dof rx ry rz
    limits (-20.0 45.0)
           (-30.0 30.0)
           (-30.0 30.0)
  end
  begin
     id 16
     name head
     direction -0.00932985 0.997511 -0.0698904  
     length 1.90213  
     axis 0 0 0   XYZ
    dof rx ry rz
    limits (-20.0 45.0)
           (-30.0 30.0)
           (-30.0 30.0)
  end
  begin
     id 17 
     name lclavicle
     direction 0.873442 0.479511 0.0846686  
     length 3.41193  
     axis 0 0 0   XYZ
    dof ry rz
    limits (-20.0 10.0)
           (0.0 20.0)
  end
  begin
     id 18 
     name lhumerus
     direction 1 -4.4897e-011 -5.62117e-018   
     length 5.59864   
     axis 180 -30 -90   XYZ
    dof rx ry rz
    limits (-60.0 90.0)
           (-90.0 90.0)
           (-90.0 90.0)
  end
  begin
     id 19
     name lradius
     direction 1 -4.48966e-011 -6.26295e-027   
     length 3.59542   
     axis 180 -30 -90   XYZ
    dof rx
    limits (-10.0 170.0)
  end
  begin
     id 20
     name lwrist
     direction 1 -4.48947e-011 -1.74096e-026   
     length 1.79771   
     axis 1.04567e-014 90 90   XYZ
    dof ry
    limits (-180.0 0.0)
 end
  begin
     id 21 
     name lhand
     direction 1 -4.49085e-011 -3.48469e-026   
     length 0.572014   
     axis 2.22196e-014 90 90   XYZ
    dof rx rz
    limits (-90.0 90.0)
           (-45.0 45.0)
  end
  begin
     id 22 
     name lfingers
     direction 1 -4.48884e-011 -6.96135e-026   
     length 0.461173   
     axis 4.44383e-014 90 90   XYZ
    dof rx
    limits (0.0 90.0)
  end
  begin
     id 23
     name lthumb
     direction 0.707107 -6.34976e-011 0.707107   
     length 0.662154   
     axis -90 45 -5.4397e-014   XYZ
    dof rx rz
    limits (-45.0 45.0)
           (-45.0 45.0)
  end
  begin
     id 24 
     name rclavicle
     direction -0.890242 0.443271 0.104786   
     length 3.46753  
     axis 0 0 0   XYZ 
    dof ry rz
    limits (-10.0 20.0)
           (-20.0 0.0)
  end
  begin
     id 25 
     name rhumerus
     direction -1 -4.48963e-011 -5.41723e-018  
     length 5.8094   
     axis 180 30 90   XYZ
    dof rx ry rz
    limits (-90.0 60.0)
           (-90.0 90.0)
           (-90.0 90.0)
  end
  begin
     id 26 
     name rradius
     direction -1 -4.48958e-011 -6.51059e-027   
     length 3.66953   
     axis 180 30 90   XYZ
    dof rx
    limits (-10.0 170.0)
  end
  begin
     id 27 
     name rwrist
     direction -1 -4.48975e-011 -1.74124e-026   
     length 1.83476   
     axis 1.04567e-014 -90 -90   XYZ
    dof ry
    limits (-180.0 0.0)
  end
  begin
     id 28
     name rhand
     direction -1 -4.49013e-011 -3.48326e-026   
     length 0.57843   
     axis 2.22196e-014 -90 -90   XYZ
    dof rx rz
    limits (-90.0 90.0)
           (-45.0 45.0)
  end
  begin
     id 29
     name rfingers
     direction -1 -4.49023e-011 -6.9669e-026   
     length 0.466345   
     axis 4.44383e-014 -90 -90   XYZ
    dof rx
    limits (0.0 90.0)
  end
  begin
     id 30
     name rthumb
     direction -0.707107 -6.34926e-011 0.707107   
     length 0.669581   
     axis -90 -45 5.4397e-014   XYZ
    dof rx rz
    limits (-45.0 45.0)
           (-45.0 45.0)
  end
:hierarchy
  begin
    root lhipjoint rhipjoint lowerback
    lhipjoint lfemur
    lfemur ltibia
    ltibia lfoot
    lfoot ltoes
    rhipjoint rfemur
    rfemur rtibia
    rtibia rfoot
    rfoot rtoes
    lowerback upperback
    upperback thorax
    thorax lowerneck lclavicle rclavicle
    lowerneck upperneck
    upperneck head
    lclavicle lhumerus
    lhumerus lradius
    lradius lwrist
    lwrist lhand lthumb
    lhand lfingers
    rclavicle rhumerus
    rhumerus rradius
    rradius rwrist
    rwrist rhand rthumb
    rhand rfingers
  end

#!OML:ASF H:\SkateBoarding\Project 1\Capture day 1\Session 1\Skater.ASF
:FULLY-SPECIFIED
:DEGREES
260
root 4.79898 13.0797 37.2565 10.926 58.5121 -8.60173
lowerback 36.187 2.14358 -4.81575
upperback 5.09235 1.48989 1.70903
thorax -12.5677 1.02319 3.7461
lowerneck -25.2936 -13.0828 -8.50294
upperneck 10.5654 -18.4558 18.5829
head 10.1862 -7.12329 4.61037
rclavicle 2.06736e-014 -3.26007e-014
rhumerus 6.08961 26.3848 -73.5999
rradius 50.5774
rwrist -16.2882
rhand -44.1001 0.529711
rfingers 7.12502
rthumb -16.9175 -28.7535
lclavicle 2.06736e-014 -3.26007e-014
lhumerus 4.87619 -21.7286 48.7275
lradius 82.0292
lwrist 25.9443
lhand -33.6604 -0.406444
lfingers 7.12502
lthumb -6.85171 29.4627
rfemur -97.6333 0.378914 19.0204
rtibia 116.854
rfoot -14.3159 29.0905
rtoes -2.06559
lfemur -80.4947 23.7476 -9.4767
ltibia 126.285
lfoot -53.6053 -11.9145
ltoes -23.2595
261
root 4.81768 13.1938 37.5337 11.317 58.6923 -8.61379
lowerback 35.4185 1.97604 -4.71494
upperback 5.02895 1.3392 1.6937
thorax -12.4519 0.948852 3.75726
lowerneck -25.397 -13.0333 -8.49594
upperneck 10.8247 -18.3882 18.3881
head 10.2586 -7.09012 4.55496
rclavicle 2.78299e-015 -6.16232e-014
rhumerus 6.06307 26.713 -73.8208
rradius 50.7905
rwrist -16.312
rhand -44.1764 0.377376
rfingers 7.12502
rthumb -16.991 -28.8995
lclavicle 2.78299e-015 -6.16232e-014
lhumerus 4.65487 -21.6666 48.8781
lradius 81.9875
lwrist 25.9176
lhand -33.568 -0.222261
lfingers 7.12502
lthumb -6.76258 29.6497
rfemur -97.3108 0.600475 19.0094
rtibia 116.007
rfoot -14.4485 28.6548
rtoes -2.1217
lfemur -80.2126 22.4316 -9.26944
ltibia 125.263
lfoot -53.5222 -11.4439
ltoes -23.0169
262
root 4.83801 13.3111 37.8112 11.7159 58.8899 -8.61644
lowerback 34.691 1.80546 -4.57713
upperback 4.88741 1.18839 1.65835
thorax -12.3185 0.871911 3.71982
lowerneck -25.378 -13.0074 -8.54245
upperneck 11.0181 -18.3535 18.2979
head 10.3113 -7.0751 4.54005
rclavicle 5.08889e-014 -6.44062e-014
rhumerus 5.967 27.0317 -74.0939
rradius 51.0152
rwrist -16.357
rhand -44.2761 0.458969
rfingers 7.12502
rthumb -17.087 -28.8096
lclavicle 5.08889e-014 -6.44062e-014
lhumerus 4.38929 -21.6542 49.0583
lradius 81.9639
lwrist 25.8281
lhand -33.3672 -0.295905
lfingers 7.12502
lthumb -6.56868 29.5822
rfemur -96.9212 0.792129 19.0065
rtibia 115.118
rfoot -14.635 28.2573
rtoes -2.2806
lfemur -79.8979 21.1593 -9.06293
ltibia 124.211
lfoot -53.5721 -10.9992
ltoes -23.1608
263
root 4.85761 13.4356 38.0904 12.1204 59.1127 -8.59585
lowerback 33.9951 1.64507 -4.46195
upperback 4.73136 1.03722 1.6164
thorax -12.2086 0.795905 3.68516
lowerneck -25.3943 -12.9697 -8.51986
upperneck 11.2457 -18.3179 18.1575
head 10.3689 -7.05773 4.49662
rclavicle -3.61788e-014 4.96962e-014
rhumerus 5.819 27.3083 -74.3689
rradius 51.266
rwrist -16.3501
rhand -44.0516 0.299554
rfingers 7.12502
rthumb -16.8709 -28.9876
lclavicle -3.61788e-014 4.96962e-014
lhumerus 4.16705 -21.663 49.2729
lradius 81.851
lwrist 25.7253
lhand -33.2988 -0.1777
lfingers 7.12502
lthumb -6.5027 29.7025
rfemur -96.4535 0.985349 18.971
rtibia 114.151
rfoot -14.7964 27.9173
rtoes -2.28656
lfemur -79.552 19.8926 -8.85264
ltibia 123.081
lfoot -53.4803 -10.7258
ltoes -22.7795
264
root 4.88261 13.5301 38.3717 12.5502 59.3464 -8.52934
lowerback 33.2843 1.49013 -4.37536
upperback 4.59508 0.883462 1.57939
thorax -12.0656 0.718819 3.67033
lowerneck -25.4496 -12.9381 -8.4887
upperneck 11.5026 -18.2934 18.0029
head 10.4427 -7.04264 4.44331
rclavicle 4.37326e-015 9.34288e-014
rhumerus 5.71295 27.7003 -74.5957
rradius 51.478
rwrist -16.3134
rhand -44.2245 0.0969736
rfingers 7.12502
rthumb -17.0373 -29.1759
lclavicle 4.37326e-015 9.34288e-014
lhumerus 3.93942 -21.6593 49.5208
lradius 81.7726
lwrist 25.6381
lhand -33.13 -0.0902295
lfingers 7.12502
lthumb -6.3397 29.7949
rfemur -96.2252 0.719285 19.2199
rtibia 113.367
rfoot -14.7829 27.6347
rtoes -2.64558
lfemur -79.3568 18.7986 -8.68144
ltibia 122.138
lfoot -53.3735 -10.4633
ltoes -22.4642
265
root 4.90184 13.6889 38.6526 12.9262 59.5663 -8.45024
lowerback 32.6383 1.32399 -4.27061
upperback 4.46021 0.71609 1.52667
thorax -11.9406 0.634839 3.63147
lowerneck -25.5027 -12.9097 -8.53695
upperneck 11.7842 -18.2662 17.9152
head 10.5416 -7.02148 4.42608
rclavicle -7.95139e-015 3.97569e-015
rhumerus 5.59496 28.1402 -74.8162
rradius 51.7018
rwrist -16.4505
rhand -44.0892 -0.0685851
rfingers 7.12502
rthumb -16.9071 -29.3527
lclavicle -7.95139e-015 3.97569e-015
lhumerus 3.65827 -21.6608 49.8075
lradius 81.6578
lwrist 25.494
lhand -32.9748 -0.129206
lfingers 7.12502
lthumb -6.18984 29.7604
rfemur -95.3956 1.21351 18.9303
rtibia 112.154
rfoot -14.97 27.2516
rtoes -2.22189
lfemur -78.7444 17.5628 -8.54172
ltibia 120.77
lfoot -53.311 -10.0323
ltoes -22.0955
